<?xml version="1.0" standalone="no"?>
<!DOCTYPE svg PUBLIC "-//W3C//DTD SVG 20010904//EN"
 "http://www.w3.org/TR/2001/REC-SVG-20010904/DTD/svg10.dtd">
<svg version="1.0" xmlns="http://www.w3.org/2000/svg"
 width="1000.000000pt" height="1000.000000pt" viewBox="0 0 1000.000000 1000.000000"
 preserveAspectRatio="xMidYMid meet">
<metadata>
Created by potrace 1.14, written by Peter Selinger 2001-2017
</metadata>
<g transform="translate(0.000000,1000.000000) scale(0.100000,-0.100000)"
fill="#000000" stroke="none">
<path d="M4469 9996 c-4 -4 -77 -14 -149 -21 -34 -3 -140 -20 -190 -30 -13 -2
-42 -7 -65 -10 -22 -4 -58 -11 -80 -17 -22 -5 -49 -12 -60 -13 -24 -4 -60 -12
-83 -19 -9 -3 -28 -7 -42 -10 -14 -2 -45 -9 -70 -16 -25 -7 -49 -13 -55 -14
-85 -19 -479 -153 -562 -191 -17 -8 -34 -15 -37 -15 -3 0 -40 -16 -82 -35 -41
-19 -77 -35 -79 -35 -7 0 -240 -114 -245 -120 -3 -3 -27 -16 -55 -30 -90 -44
-424 -247 -445 -270 -3 -3 -32 -23 -65 -45 -33 -21 -67 -45 -75 -52 -8 -8 -51
-41 -95 -74 -80 -60 -149 -116 -191 -154 -12 -11 -46 -40 -75 -65 -29 -25 -67
-58 -85 -75 -17 -16 -45 -42 -60 -56 -16 -15 -36 -35 -45 -45 -9 -11 -27 -29
-40 -40 -29 -26 -110 -113 -199 -214 -36 -40 -73 -82 -82 -92 -10 -10 -18 -20
-18 -23 0 -3 -8 -13 -17 -23 -10 -10 -31 -35 -48 -56 -16 -22 -43 -56 -60 -76
-16 -21 -48 -64 -70 -95 -22 -32 -46 -63 -52 -71 -7 -7 -13 -17 -13 -22 0 -6
-3 -12 -8 -14 -7 -3 -48 -62 -107 -158 -16 -24 -34 -51 -42 -58 -7 -7 -13 -18
-13 -23 0 -5 -12 -28 -27 -52 -37 -57 -80 -134 -100 -177 -8 -19 -18 -37 -22
-40 -5 -4 -103 -198 -106 -210 -1 -3 -16 -36 -33 -74 -18 -38 -32 -75 -32 -82
0 -7 -4 -14 -8 -16 -5 -1 -20 -34 -35 -73 -14 -38 -40 -106 -57 -150 -17 -44
-33 -87 -35 -95 -2 -8 -17 -58 -35 -110 -18 -52 -33 -102 -35 -110 -2 -8 -14
-49 -25 -90 -12 -41 -23 -82 -25 -91 -2 -8 -11 -47 -20 -85 -19 -81 -25 -110
-32 -144 -2 -14 -8 -44 -13 -67 -6 -23 -12 -63 -15 -89 -4 -26 -8 -50 -10 -53
-2 -3 -6 -30 -10 -60 -4 -30 -9 -63 -11 -75 -2 -12 -7 -48 -11 -81 -10 -78
-10 -1116 0 -1175 4 -25 10 -63 12 -85 5 -40 40 -248 50 -295 2 -14 9 -47 15
-75 6 -27 12 -60 15 -73 2 -12 6 -25 8 -30 3 -4 8 -23 11 -42 3 -19 13 -60 22
-90 8 -30 18 -64 21 -75 3 -11 11 -41 19 -66 8 -25 16 -54 18 -65 3 -10 12
-39 21 -64 9 -25 18 -52 20 -60 5 -18 58 -163 76 -205 6 -16 13 -35 14 -41 2
-5 14 -36 29 -67 14 -32 26 -60 26 -62 0 -24 204 -426 284 -558 23 -37 46 -76
51 -85 28 -49 81 -127 87 -130 5 -2 8 -8 8 -13 0 -18 241 -346 302 -411 16
-17 28 -34 28 -38 0 -5 3 -10 8 -12 4 -1 34 -34 67 -73 69 -81 341 -355 430
-433 101 -89 109 -96 155 -132 25 -19 47 -37 50 -41 3 -3 48 -38 100 -78 52
-39 100 -75 106 -80 35 -28 285 -191 293 -191 6 0 11 -4 11 -10 0 -5 4 -10 10
-10 5 0 38 -17 72 -38 161 -98 390 -214 588 -297 36 -15 73 -31 82 -36 10 -5
22 -9 28 -9 6 0 29 -9 53 -19 23 -11 60 -25 82 -31 22 -7 45 -16 50 -20 8 -5
81 -30 105 -35 3 0 39 -11 80 -24 146 -44 275 -80 350 -95 14 -3 48 -11 75
-16 28 -6 61 -13 75 -15 14 -2 25 -4 25 -5 0 -1 9 -3 20 -5 11 -1 65 -10 120
-19 55 -10 116 -19 135 -21 19 -3 55 -7 80 -10 25 -3 65 -8 90 -10 25 -2 81
-7 125 -11 44 -5 204 -9 355 -9 294 0 429 7 605 30 22 3 63 7 90 10 28 3 86
12 130 20 44 8 94 17 110 20 17 2 41 7 55 10 14 3 39 8 55 10 17 3 38 8 47 11
9 3 26 7 38 9 54 10 202 49 280 73 47 14 90 27 96 28 27 5 265 89 327 115 37
15 68 28 70 28 4 -1 54 20 146 60 164 73 395 192 526 272 17 10 43 26 60 35
32 18 193 123 210 136 6 4 69 50 140 102 128 93 329 256 372 302 12 13 25 24
28 24 11 0 305 298 386 390 41 47 77 87 82 88 4 2 7 8 7 12 0 5 12 22 28 38
25 28 106 128 144 183 43 59 98 135 105 144 27 35 162 247 189 295 10 19 21
37 24 40 6 6 18 28 61 108 17 31 36 63 41 69 6 7 7 13 2 13 -5 0 -4 4 1 8 6 4
18 23 27 42 82 169 108 225 108 236 0 7 3 14 8 16 19 8 208 526 241 658 0 3
10 39 22 80 11 41 22 82 24 90 2 8 9 38 15 65 6 28 13 59 16 70 2 11 8 43 14
70 32 157 46 242 65 405 3 25 7 63 10 85 27 231 27 883 0 1010 -3 11 -7 45
-10 75 -12 127 -46 331 -75 460 -5 25 -12 56 -14 70 -2 14 -16 70 -31 125 -15
55 -29 111 -32 125 -2 14 -7 32 -10 40 -8 18 -7 15 -22 70 -7 25 -18 51 -23
58 -6 6 -8 12 -5 12 4 0 -10 44 -29 98 -19 53 -36 102 -38 107 -4 12 -7 21
-61 155 -24 58 -54 130 -69 160 -14 29 -26 59 -26 66 0 6 -7 17 -15 24 -9 7
-14 15 -11 17 4 4 -68 147 -85 169 -5 6 -6 14 -2 17 3 4 1 7 -5 7 -7 0 -12 9
-12 20 0 11 -4 20 -8 20 -4 0 -21 27 -37 60 -17 33 -33 60 -37 60 -5 0 -8 4
-8 9 0 29 -302 479 -374 558 -6 6 -21 24 -33 40 -12 15 -30 38 -40 49 -10 12
-34 41 -53 64 -78 95 -122 142 -270 290 -136 136 -234 228 -320 300 -14 12
-37 32 -52 46 -15 13 -30 24 -34 24 -3 0 -11 6 -18 13 -7 6 -27 23 -45 37 -18
14 -54 41 -79 61 -80 61 -356 249 -366 249 -2 0 -28 16 -57 35 -30 19 -59 35
-66 35 -7 0 -13 3 -13 8 0 4 -34 25 -75 46 -42 21 -78 42 -80 47 -3 4 -22 13
-43 20 -20 6 -39 15 -42 18 -9 11 -310 151 -324 151 -2 0 -25 10 -52 22 -27
12 -51 22 -54 23 -8 1 -101 36 -135 50 -84 35 -425 136 -544 161 -12 3 -53 12
-90 20 -80 19 -88 21 -137 28 -22 3 -50 8 -64 11 -57 11 -89 16 -160 25 -41 6
-88 14 -105 17 -32 7 -1109 16 -1116 9z"/>
</g>
</svg>
